# xmcd
#
# Track frame offsets:
#	150
#	17489
#	32492
#	49180
#	72867
#
# Disc length: 1113 seconds
#
# Revision: 0
# Processed by: cddbd v1.5.2PL0 Copyright (c) Steve Scherf et al.
# Submitted via: EasyCDDAExtractor 15.3.0.1
#
DISCID=35045705
DTITLE=Band Of Skulls - Electric Blues EP
DYEAR=2012
DGENRE=Alternative
TTITLE0=Wanderluster
TTITLE1=Devil's Rug
TTITLE2=All About You
TTITLE3=Sweet Sour (Man Without Country Remix)
TTITLE4=data track
EXTD=
EXTT0=
EXTT1=
EXTT2=
EXTT3=
EXTT4=
PLAYORDER=
